<?xml version="1.0" encoding="UTF-8" standalone="no"?>
<!-- Created with Inkscape (http://www.inkscape.org/) -->

<svg
   xmlns:dc="http://purl.org/dc/elements/1.1/"
   xmlns:cc="http://creativecommons.org/ns#"
   xmlns:rdf="http://www.w3.org/1999/02/22-rdf-syntax-ns#"
   xmlns:svg="http://www.w3.org/2000/svg"
   xmlns="http://www.w3.org/2000/svg"
   version="1.0"
   width="470"
   height="350"
   id="svg2">
  <metadata
     id="metadata2224">
    <rdf:RDF>
      <cc:Work
         rdf:about="">
        <dc:format>image/svg+xml</dc:format>
        <dc:type
           rdf:resource="http://purl.org/dc/dcmitype/StillImage" />
        <dc:title></dc:title>
      </cc:Work>
    </rdf:RDF>
  </metadata>
  <defs
     id="defs4" />
  <path
     d="M 166.75304,45.280166 C 175.66075,86.219948 64.312832,102.32855 123.74865,45.04304 m 12.10052,31.010878 C 108.16546,40.281041 151.16992,-21.143067 165.6448,35.061771 m -31.36796,4.142186 c 55.94638,-23.728738 63.2237,67.957203 8.22169,42.689045"
     id="path2162"
     style="fill:none;stroke:#000000;stroke-width:1.29999995;stroke-linecap:butt;stroke-linejoin:miter;stroke-miterlimit:4;stroke-opacity:1;stroke-dasharray:none" />
  <path
     d="m 217.38205,30.547617 c -19.32915,-0.170642 -29.2391,31.797458 -5.89303,45.463643 42.99279,25.16686 50.69056,-5.345838 32.2069,-16.123193 m 7.55153,24.600522 C 278.1493,99.042175 287.27522,25.653737 225.30502,30.547617 m 10.934,25.414883 c -40.65046,-18.888615 11.05997,-70.520415 15.43664,-25.854094 m -1.86422,6.423668 c -0.52173,10.772402 -25.75216,38.50789 -5.08878,43.674068"
     id="path2168"
     style="fill:none;stroke:#000000;stroke-width:1.29999995;stroke-linecap:butt;stroke-linejoin:miter;stroke-miterlimit:4;stroke-opacity:1;stroke-dasharray:none" />
  <path
     d="M 310.23684,65.137213 C 299.73667,1.8566186 320.1576,7.6883269 335.21128,23.392214 m -0.12947,52.153574 C 301.8705,65.581884 270.83306,60.700365 303.41806,40.466972 m 51.00521,12.056689 C 341.71556,81.179685 322.95724,101.51304 311.85646,73.95105 m 28.61859,-43.748142 c 17.87494,17.059945 40.28348,52.729298 2.70486,47.746654 M 311.92108,37.26194 c 36.87671,-19.436744 54.20023,-11.303676 46.14636,6.848508"
     id="path2170"
     style="fill:none;stroke:#000000;stroke-width:1.29999995;stroke-linecap:butt;stroke-linejoin:miter;stroke-miterlimit:4;stroke-opacity:1;stroke-dasharray:none" />
  <path
     d="m 430.67518,30.878854 c -2.53574,8.546751 -26.31017,21.818935 -12.90776,29.621084 m -3.46729,19.063396 c -13.63255,-12.344971 17.76238,-4.988136 7.47628,-32.432 m 3.04054,17.831695 c 6.45837,10.201405 -7.75768,22.808476 -25.733,17.784264 -34.16789,-9.693922 -11.54874,-54.075508 5.47675,-54.367443 m 8.38033,-1.363065 c 70.93348,-4.963678 38.11748,72.552824 7.28183,58.402069 M 416.68429,42.850568 C 391.94242,19.286109 428.60906,-0.56757383 430.9959,25.362416"
     id="path2172"
     style="fill:none;stroke:#000000;stroke-width:1.29999995;stroke-linecap:butt;stroke-linejoin:miter;stroke-miterlimit:4;stroke-opacity:1;stroke-dasharray:none" />
  <path
     d="m 88.494713,49.820195 c 0,20.425049 -16.576849,37.001897 -37.001895,37.001897 -20.425047,0 -37.001897,-16.576848 -37.001897,-37.001897 0,-20.425048 16.57685,-37.0019 37.001897,-37.0019 20.425046,0 37.001895,16.576852 37.001895,37.0019 z"
     id="path2174"
     style="fill:none;stroke:#000000;stroke-width:1.29999995;stroke-miterlimit:4;stroke-opacity:1;stroke-dasharray:none;stroke-dashoffset:122.88000439;marker-start:none" />
  <path
     d="m 70.647939,190.48195 c 30.726651,14.80432 1.65578,-36.48111 -4.860543,-54.47868 m 4.772768,22.63883 c -8.062859,7.28841 -21.648295,17.46035 -6.988181,27.69292 m 0.04981,-58.21092 C 54.20497,101.56707 29.424634,140.30206 28.823985,161.15395 m 8.570234,-17.42219 c 60.270349,-29.79567 58.003924,-0.40966 39.448426,10.85122 M 54.386801,169.98384 C 25.191421,165.17091 -2.4959219,162.9846 27.560976,146.55671 m 0.851291,25.65161 c 0.857367,36.22603 69.278386,14.23264 33.412564,0.67836"
     id="path5497"
     style="fill:none;stroke:#000000;stroke-width:1.29999995;stroke-linecap:butt;stroke-linejoin:miter;stroke-miterlimit:4;stroke-opacity:1;stroke-dasharray:none" />
  <path
     d="m 120.67779,138.09213 c 6.81638,-12.13987 48.69766,-31.69763 42.99098,-6.98319 m -6.92646,42.47393 c -54.59043,3.57699 -58.966397,-15.20413 -41.01564,-29.41964 m 18.07431,7.44293 C 107.80795,136.77163 91.610317,116.39633 133.0044,122.94421 m -12.11683,52.87611 c -8.68459,16.14545 28.99559,23.9015 41.14961,10.28531 9.41478,-14.68099 -10.38456,-20.36772 -20.18581,-28.97928 m 18.35161,-19.51267 c -9.81347,17.13893 -26.69102,12.52932 -35.84963,30.40094 m 18.82335,-41.54258 c 19.55538,2.54581 57.36387,34.7582 23.96297,44.94259"
     id="path5786"
     style="fill:none;stroke:#000000;stroke-width:1.29999995;stroke-linecap:butt;stroke-linejoin:miter;stroke-miterlimit:4;stroke-opacity:1;stroke-dasharray:none" />
  <path
     d="m 240.83953,160.95249 c 14.05464,49.44818 -46.4491,35.03873 -37.74411,3.18611 m 26.25791,-5.31561 c 10.10594,-4.01398 20.3193,2.8266 31.51257,-2.92999 m 4.44115,-3.68234 c 27.22679,-35.62829 -39.30848,-52.360901 -25.41918,1.37713 m 3.9045,31.15661 c 24.22917,15.05097 30.98427,-44.66876 -1.47671,-54.02642 m -6.02725,-1.10471 c -36.27934,-3.91393 -57.58169,39.24401 -14.23122,32.15562 m -16.45587,-5.28922 c 9.03494,-18.9272 24.71781,8.08516 33.74992,23.8459"
     id="path5839"
     style="fill:none;stroke:#000000;stroke-width:1.29999995;stroke-linecap:butt;stroke-linejoin:miter;stroke-miterlimit:4;stroke-opacity:1;stroke-dasharray:none" />
  <path
     d="m 357.91567,157.05725 c -7.33268,28.75123 -5.75279,40.5567 -22.9075,34.61438 m -30.77304,-19.86795 c -8.86653,-38.70062 -7.53872,-42.70968 6.79781,-43.22866 m 10.06247,-0.52668 c 10.25979,-2.91201 44.89048,-2.26365 39.69526,20.58196 m -57.64833,-8.32739 c 24.49338,-23.54936 28.88301,-25.41743 36.97896,-15.43087 m -12.77978,61.00605 C 296.73823,174.79317 279.52196,164.3114 295.95486,146.62312 m 53.99061,32.72306 c -23.81836,12.02388 -40.10601,20.92591 -43.31451,1.41114 m 39.24032,-47.98502 c 15.87302,22.78614 24.61494,30.44219 11.04555,43.04421"
     id="path6026"
     style="fill:none;stroke:#000000;stroke-width:1.29999995;stroke-linecap:butt;stroke-linejoin:miter;stroke-miterlimit:4;stroke-opacity:1;stroke-dasharray:none" />
  <path
     d="m 391.31517,136.18612 c -32.39832,10.45519 24.22756,22.03837 31.04446,34.76788 m 18.07727,-35.27885 c -4.01371,-26.00769 -29.62713,-4.96849 -40.78568,-1.89571 m 41.70777,36.03165 c -11.89353,4.92886 -39.21201,12.76474 -18.72964,18.01828 m -0.3968,-59.78062 c 11.395,11.10404 47.96762,24.815 26.27163,38.55343 m -52.61151,-15.90953 c -0.49268,-20.94913 1.4458,-39.02602 19.1947,-28.25948 m 11.2418,56.94421 c 5.17122,28.65182 -30.18039,7.65768 -29.6426,-19.45913 m 33.88188,28.31222 c 25.90556,-5.7637 12.92706,-24.45571 11.45627,-42.5275"
     id="path7136"
     style="fill:none;stroke:#000000;stroke-width:1.29999995;stroke-linecap:butt;stroke-linejoin:miter;stroke-miterlimit:4;stroke-opacity:1;stroke-dasharray:none" />
  <path
     d="m 53.225107,288.23658 c 25.516072,32.44271 -63.744018,13.24849 -30.755835,-32.66276 m 43.223929,2.16424 c -13.673443,7.86924 -30.320184,16.40518 -17.843214,26.64779 m -7.590579,-44.74071 c 47.821018,4.24644 54.228897,-1.12715 33.384992,13.68195 M 45.553423,265.42591 C 32.608976,258.80996 -7.762644,236.75296 30.698167,239.64513 m 18.229112,61.01183 C 20.941023,290.06597 80.117635,285.14134 52.78247,269.23377 m 11.050579,-23.6093 c 53.638901,69.91195 4.279474,60.40034 -3.844973,57.43606 M 27.632869,250.76669 c 9.896648,-7.92 17.372298,-30.84918 30.703139,-12.81857"
     id="path7183"
     style="fill:none;stroke:#000000;stroke-width:1.29999995;stroke-linecap:butt;stroke-linejoin:miter;stroke-miterlimit:4;stroke-opacity:1;stroke-dasharray:none" />
  <path
     d="m 111.75116,269.11632 c 7.8921,28.18899 37.45462,44.74936 49.46778,31.33909 m 4.29804,-6.41273 c 26.93882,-42.83505 10.36932,-67.00576 -1.39407,-53.9911 m -4.67177,5.34395 c -9.88362,11.64284 -23.95488,37.73572 -29.46333,47.21023 m -2.59197,6.05469 c -7.00485,16.12944 -40.815403,-0.41291 -5.00903,-54.01789 m 3.45368,-4.98236 c 16.95957,-24.08836 44.96389,9.12671 49.30321,27.93437 m 2.80308,6.39322 c 4.80469,14.50923 5.11657,58.00837 -33.31868,0.30045 m -3.17682,-6.769 c -19.38861,-43.11697 -39.63078,-31.08707 -32.12945,-6.59696"
     id="path7225"
     style="fill:none;stroke:#000000;stroke-width:1.29999995;stroke-linecap:butt;stroke-linejoin:miter;stroke-miterlimit:4;stroke-opacity:1;stroke-dasharray:none" />
  <path
     d="m 218.64803,295.57918 c -39.10925,-9.64732 -15.27182,-38.07026 9.30388,-54.06448 m 20.58943,55.73119 c 14.11265,13.05624 -45.43813,10.38669 -18.72965,-10.76298 m 5.06172,-51.16843 c 7.49879,-9.07652 43.21322,-3.79585 3.49375,23.02902 m 17.23516,-10.46166 c 27.61354,13.07115 20.93688,44.73869 -26.30469,49.40448 m 0.99441,-32.32924 c -7.83408,8.25921 0.25889,14.50838 13.10028,25.98112 m -35.9296,-38.9412 c -13.85138,-8.8834 14.79231,-21.58229 41.56965,-7.63692 m -10.5688,35.50925 c 17.30817,-18.00622 1.84309,-13.14702 -22.7684,-23.1699"
     id="path7257"
     style="fill:none;stroke:#000000;stroke-width:1.29999995;stroke-linecap:butt;stroke-linejoin:miter;stroke-miterlimit:4;stroke-opacity:1;stroke-dasharray:none" />
  <path
     d="m 355.29355,268.24499 c 1.36332,12.63668 -11.36559,25.47178 -25.54878,26.12163 m -13.99096,-22.38994 c 2.23404,16.01449 21.99349,48.87896 24.33214,24.52238 m -20.68233,-0.53315 c -34.28474,11.42369 -32.18464,-67.72848 -5.47476,-33.58493 m 23.11557,24.52237 c -1.55628,-14.2956 -11.52921,-39.38489 7.90794,-43.71376 m 11.55775,0 c 19.86557,3.75374 -7.19977,32.99993 -17.64076,18.1252 m -9.73287,-1.06617 c -10.1119,1.07753 -20.20204,14.83344 -28.59028,4.26475 m -8.51627,-8.52956 c -17.63112,-27.51956 67.20204,-38.95461 62.04702,2.13244"
     id="path8242"
     style="fill:none;stroke:#000000;stroke-width:1.29999995;stroke-linecap:butt;stroke-linejoin:miter;stroke-miterlimit:4;stroke-opacity:1;stroke-dasharray:none" />
  <path
     d="m 398.5923,244.57037 c 19.86116,-27.39099 37.23538,-8.14451 38.825,17.05431 m 2.21857,9.1831 c 9.39752,53.98124 -25.07846,35.47021 -26.62287,5.24748 m 14.42073,-29.51707 c -5.63539,6.88391 -4.73418,22.53447 -3.3077,31.15507 0.88218,6.14706 1.86342,12.52993 0.53449,18.69591 m -7.21037,4.59158 c -28.81311,15.24121 -34.17404,-32.34954 -24.40427,-47.22724 m 17.19392,9.18307 c -15.182,-28.68122 -37.50497,-10.58664 -25.51357,1.9678 m 43.81677,1.96778 c 33.7199,2.91295 34.76264,-37.13995 7.76503,-25.58143 m -44.37143,27.54925 c 10.16881,4.03279 14.32458,-0.51389 27.73215,-1.31191"
     id="path9235"
     style="fill:none;stroke:#000000;stroke-width:1.29999995;stroke-linecap:butt;stroke-linejoin:miter;stroke-miterlimit:4;stroke-opacity:1;stroke-dasharray:none" />
  <path
     d="m 22.390624,92.658924 1.672762,0 0,7.085938 c -2e-6,1.250008 0.238964,2.151048 0.716899,2.703128 0.477928,0.54687 1.252507,0.82031 2.323739,0.82031 1.065727,0 1.837559,-0.27344 2.315499,-0.82031 0.477923,-0.55208 0.716889,-1.45312 0.716898,-2.703128 l 0,-7.085938 1.672762,0 0,7.28125 c -10e-6,1.520836 -0.398287,2.669276 -1.19483,3.445316 -0.791068,0.77604 -1.961177,1.16406 -3.510329,1.16406 -1.554658,0 -2.73026,-0.38802 -3.52681,-1.16406 -0.791062,-0.77604 -1.186591,-1.92448 -1.18659,-3.445316 l 0,-7.28125 m 20.155552,6.382813 0,5.281253 -1.516198,0 0,-5.234378 c -8e-6,-0.828119 -0.170306,-1.44791 -0.510893,-1.859375 -0.340602,-0.411451 -0.851495,-0.61718 -1.532679,-0.617188 -0.818532,8e-6 -1.464015,0.247403 -1.93645,0.742188 -0.472441,0.494798 -0.70866,1.169276 -0.708657,2.023437 l 0,4.945316 -1.524439,0 0,-8.750003 1.524439,0 0,1.359375 c 0.362565,-0.526034 0.78831,-0.919263 1.277232,-1.179688 0.494407,-0.260408 1.062981,-0.390616 1.705723,-0.390625 1.060234,9e-6 1.86228,0.312509 2.406141,0.9375 0.543846,0.619799 0.815772,1.533861 0.815781,2.742188 m 2.982956,-6.875 1.524439,0 0,7.179687 4.523875,-3.773437 1.93645,0 -4.894686,4.09375 5.10069,4.656253 -1.97765,0 -4.688679,-4.27344 0,4.27344 -1.524439,0 0,-12.156253 m 17.485724,6.875 0,5.281253 -1.516198,0 0,-5.234378 c -7e-6,-0.828119 -0.170306,-1.44791 -0.510893,-1.859375 -0.340602,-0.411451 -0.851495,-0.61718 -1.532679,-0.617188 -0.818532,8e-6 -1.464015,0.247403 -1.93645,0.742188 -0.472441,0.494798 -0.70866,1.169276 -0.708657,2.023437 l 0,4.945316 -1.524439,0 0,-8.750003 1.524439,0 0,1.359375 c 0.362565,-0.526034 0.78831,-0.919263 1.277232,-1.179688 0.494408,-0.260408 1.062981,-0.390616 1.705723,-0.390625 1.060234,9e-6 1.86228,0.312509 2.406141,0.9375 0.543846,0.619799 0.815772,1.533861 0.815781,2.742188 m 6.616889,-2.460938 c -0.813039,8e-6 -1.455774,0.302091 -1.92821,0.90625 -0.472441,0.598965 -0.70866,1.42188 -0.708657,2.46875 -3e-6,1.046881 0.233469,1.872401 0.700417,2.476561 0.472435,0.59896 1.117918,0.89844 1.93645,0.89844 0.807534,0 1.447523,-0.30208 1.919968,-0.90625 0.472432,-0.60417 0.708651,-1.42708 0.708658,-2.468751 -7e-6,-1.036453 -0.236226,-1.856765 -0.708658,-2.460937 -0.472445,-0.609368 -1.112434,-0.914055 -1.919968,-0.914063 m 0,-1.21875 c 1.318426,9e-6 2.353945,0.406259 3.106559,1.21875 0.752596,0.812507 1.128899,1.937506 1.128908,3.375 -9e-6,1.432291 -0.376312,2.557291 -1.128908,3.375001 -0.752614,0.8125 -1.788133,1.21875 -3.106559,1.21875 -1.323931,0 -2.362196,-0.40625 -3.1148,-1.21875 -0.747113,-0.81771 -1.120669,-1.94271 -1.120669,-3.375001 0,-1.437494 0.373556,-2.562493 1.120669,-3.375 0.752604,-0.812491 1.790869,-1.218741 3.1148,-1.21875 m 8.24021,-2.273437 0,2.484375 3.123038,0 0,1.117187 -3.123038,0 0,4.749996 c -4e-6,0.71355 0.101625,1.17188 0.304887,1.375 0.208748,0.20313 0.628998,0.30469 1.260751,0.30469 l 1.5574,0 0,1.20313 -1.5574,0 c -1.170113,0 -1.977652,-0.20573 -2.42262,-0.61719 -0.444974,-0.41667 -0.667459,-1.17187 -0.667458,-2.26563 l 0,-4.749996 -1.112427,0 0,-1.117187 1.112427,0 0,-2.484375 1.52444,0"
     id="flowRoot9254"
     style="font-size:16px" />
  <g
     transform="matrix(1.0547468,0,0,1,57.351783,-235.28529)"
     id="g9278">
    <path
       d="m 16.492188,90.033924 c 0.755201,0.161465 1.343742,0.497402 1.765624,1.007813 0.427075,0.510421 0.640617,1.140629 0.640626,1.890625 -9e-6,1.151043 -0.395842,2.041668 -1.1875,2.671875 -0.791674,0.630208 -1.916673,0.945312 -3.375,0.945312 -0.489588,0 -0.994796,-0.04948 -1.515626,-0.148437 -0.515627,-0.09375 -1.04948,-0.236979 -1.601562,-0.429688 l 0,-1.523437 c 0.437498,0.25521 0.916665,0.447918 1.4375,0.578125 0.52083,0.130209 1.0651,0.195313 1.632812,0.195312 0.989579,10e-7 1.742182,-0.195311 2.257813,-0.585937 0.520826,-0.390623 0.781243,-0.958331 0.78125,-1.703125 -7e-6,-0.687496 -0.242195,-1.223954 -0.726563,-1.609375 -0.479172,-0.39062 -1.148442,-0.585932 -2.007812,-0.585938 l -1.359375,0 0,-1.296875 1.421875,0 c 0.776036,7e-6 1.369786,-0.153639 1.78125,-0.460937 0.411451,-0.312493 0.61718,-0.760409 0.617188,-1.34375 -8e-6,-0.598949 -0.213549,-1.057282 -0.640626,-1.375 -0.42188,-0.322907 -1.028651,-0.484365 -1.820312,-0.484375 -0.432296,1e-5 -0.895837,0.04689 -1.390625,0.140625 -0.494794,0.09376 -1.039065,0.239593 -1.632813,0.4375 l 0,-1.40625 c 0.598957,-0.166656 1.158852,-0.291655 1.679688,-0.375 0.526038,-0.08332 1.020829,-0.124989 1.484375,-0.125 1.197911,1.1e-5 2.145826,0.273449 2.84375,0.820312 0.697908,0.541677 1.046866,1.276052 1.046875,2.203125 -9e-6,0.645842 -0.184904,1.192716 -0.554688,1.640625 -0.369799,0.442715 -0.89584,0.750007 -1.578124,0.921875"
       transform="translate(64.82812,241.00404)"
       id="flowRoot9262"
       style="font-size:16px" />
    <path
       d="m 86.488281,347.3399 1.933594,0 0,-6.67383 -2.103516,0.42187 0,-1.07812 2.091797,-0.42188 1.183594,0 0,7.75196 1.933594,0 0,0.99609 -5.039063,0 0,-0.99609"
       transform="translate(-1,-3)"
       id="flowRoot9270" />
  </g>
  <g
     transform="matrix(1.0547468,0,0,1,153.05757,-235.28529)"
     id="g9288">
    <path
       d="m 16.046875,86.033924 -3.984375,6.226563 3.984375,0 0,-6.226563 m -0.414063,-1.375 1.984376,0 0,7.601563 1.664062,0 0,1.3125 -1.664062,0 0,2.75 -1.570313,0 0,-2.75 -5.265625,0 0,-1.523438 4.851562,-7.390625"
       transform="translate(64.82812,241.00404)"
       id="flowRoot9290"
       style="font-size:16px" />
    <path
       d="m 86.488281,347.3399 1.933594,0 0,-6.67383 -2.103516,0.42187 0,-1.07812 2.091797,-0.42188 1.183594,0 0,7.75196 1.933594,0 0,0.99609 -5.039063,0 0,-0.99609"
       transform="translate(-1,-3)"
       id="flowRoot9298" />
  </g>
  <g
     transform="matrix(1.0547468,0,0,1,242.76337,-235.28529)"
     id="g9306">
    <path
       d="m 11.726562,84.658924 6.195313,0 0,1.328125 -4.75,0 0,2.859375 c 0.229163,-0.07812 0.45833,-0.135409 0.6875,-0.171875 0.229163,-0.04166 0.458329,-0.06249 0.6875,-0.0625 1.302077,8e-6 2.333326,0.356778 3.09375,1.070313 0.760408,0.713547 1.140616,1.679692 1.140625,2.898437 -9e-6,1.255211 -0.390633,2.231772 -1.171875,2.929688 -0.781257,0.692708 -1.882818,1.039062 -3.304687,1.039062 -0.489588,0 -0.989587,-0.04167 -1.5,-0.125 -0.505211,-0.08333 -1.028648,-0.208333 -1.570313,-0.375 l 0,-1.585937 c 0.468748,0.25521 0.953123,0.445313 1.453125,0.570312 0.499997,0.125001 1.028642,0.187501 1.585938,0.1875 0.901036,10e-7 1.614577,-0.236978 2.140624,-0.710937 0.526035,-0.473956 0.789056,-1.117185 0.789063,-1.929688 -7e-6,-0.812495 -0.263028,-1.455724 -0.789063,-1.929687 -0.526047,-0.473953 -1.239588,-0.710932 -2.140624,-0.710938 -0.421879,6e-6 -0.843754,0.04688 -1.265626,0.140625 -0.416669,0.09376 -0.843752,0.239589 -1.28125,0.4375 l 0,-5.859375"
       transform="translate(64.82812,241.00404)"
       id="flowRoot9308"
       style="font-size:16px" />
    <path
       d="m 86.488281,347.3399 1.933594,0 0,-6.67383 -2.103516,0.42187 0,-1.07812 2.091797,-0.42188 1.183594,0 0,7.75196 1.933594,0 0,0.99609 -5.039063,0 0,-0.99609"
       transform="translate(-1,-3)"
       id="flowRoot9316" />
  </g>
  <g
     transform="matrix(1.0547468,0,0,1,330.46914,-235.28529)"
     id="g9324">
    <path
       d="m 11.726562,84.658924 6.195313,0 0,1.328125 -4.75,0 0,2.859375 c 0.229163,-0.07812 0.45833,-0.135409 0.6875,-0.171875 0.229163,-0.04166 0.458329,-0.06249 0.6875,-0.0625 1.302077,8e-6 2.333326,0.356778 3.09375,1.070313 0.760408,0.713547 1.140616,1.679692 1.140625,2.898437 -9e-6,1.255211 -0.390633,2.231772 -1.171875,2.929688 -0.781257,0.692708 -1.882818,1.039062 -3.304687,1.039062 -0.489588,0 -0.989587,-0.04167 -1.5,-0.125 -0.505211,-0.08333 -1.028648,-0.208333 -1.570313,-0.375 l 0,-1.585937 c 0.468748,0.25521 0.953123,0.445313 1.453125,0.570312 0.499997,0.125001 1.028642,0.187501 1.585938,0.1875 0.901036,10e-7 1.614577,-0.236978 2.140624,-0.710937 0.526035,-0.473956 0.789056,-1.117185 0.789063,-1.929688 -7e-6,-0.812495 -0.263028,-1.455724 -0.789063,-1.929687 -0.526047,-0.473953 -1.239588,-0.710932 -2.140624,-0.710938 -0.421879,6e-6 -0.843754,0.04688 -1.265626,0.140625 -0.416669,0.09376 -0.843752,0.239589 -1.28125,0.4375 l 0,-5.859375"
       transform="translate(64.82812,241.00404)"
       id="flowRoot9326"
       style="font-size:16px" />
    <path
       d="m 87.302734,347.3399 4.13086,0 0,0.99609 -5.554688,0 0,-0.99609 c 0.449218,-0.46485 1.060545,-1.08789 1.833985,-1.86914 0.77734,-0.78516 1.265621,-1.29102 1.464843,-1.51758 0.378902,-0.42578 0.642574,-0.78515 0.791016,-1.07813 0.152339,-0.29687 0.22851,-0.58788 0.228516,-0.87304 -6e-6,-0.46484 -0.164068,-0.84375 -0.492188,-1.13672 -0.324223,-0.29296 -0.748051,-0.43945 -1.271484,-0.43946 -0.371097,10e-6 -0.763675,0.0645 -1.177735,0.19336 -0.410158,0.12892 -0.84961,0.32423 -1.318359,0.58594 l 0,-1.19531 c 0.476561,-0.1914 0.921873,-0.33593 1.335938,-0.4336 0.414059,-0.0976 0.792965,-0.14647 1.136718,-0.14648 0.906246,1e-5 1.628901,0.22657 2.167969,0.67969 0.539056,0.45313 0.808587,1.0586 0.808594,1.8164 -7e-6,0.35938 -0.06837,0.70118 -0.205078,1.02539 -0.132819,0.32032 -0.376959,0.69923 -0.732422,1.13672 -0.09766,0.11329 -0.408208,0.44141 -0.931641,0.98438 -0.523441,0.53906 -1.261722,1.29492 -2.214844,2.26758"
       transform="translate(-1,-3)"
       id="flowRoot9334" />
  </g>
  <g
     transform="translate(-29.794288,-126.82088)"
     id="g9342">
    <path
       d="m 15.28125,89.862049 c -0.708338,7e-6 -1.270837,0.242194 -1.6875,0.726563 -0.411462,0.48438 -0.61719,1.148442 -0.617188,1.992187 -2e-6,0.838545 0.205726,1.502606 0.617188,1.992188 0.416663,0.484376 0.979162,0.726563 1.6875,0.726562 0.708327,10e-7 1.268223,-0.242186 1.679688,-0.726562 0.416659,-0.489582 0.624992,-1.153643 0.625,-1.992188 -8e-6,-0.843745 -0.208341,-1.507807 -0.625,-1.992187 -0.411465,-0.484369 -0.971361,-0.726556 -1.679688,-0.726563 m 3.132812,-4.945312 0,1.4375 c -0.395841,-0.18749 -0.796882,-0.330719 -1.203124,-0.429688 -0.401049,-0.09895 -0.799486,-0.148427 -1.195313,-0.148437 -1.041672,1e-5 -1.838546,0.351572 -2.390625,1.054687 -0.546878,0.703134 -0.859378,1.765633 -0.9375,3.1875 0.307289,-0.453118 0.692705,-0.799472 1.15625,-1.039062 0.463537,-0.244785 0.973954,-0.36718 1.53125,-0.367188 1.171868,8e-6 2.096347,0.356778 2.773438,1.070313 0.682282,0.708339 1.023428,1.674484 1.023437,2.898437 -9e-6,1.197919 -0.354175,2.158856 -1.0625,2.882813 -0.708341,0.723958 -1.651048,1.085937 -2.828125,1.085937 -1.348962,0 -2.380211,-0.515625 -3.09375,-1.546875 -0.713543,-1.036456 -1.070314,-2.536454 -1.070312,-4.5 -2e-6,-1.843742 0.437498,-3.312491 1.3125,-4.40625 0.874996,-1.098947 2.049474,-1.648426 3.523437,-1.648437 0.395827,1.1e-5 0.794264,0.03907 1.195313,0.117187 0.406242,0.07814 0.828117,0.195324 1.265624,0.351563"
       transform="translate(64.82812,241.00404)"
       id="flowRoot9344"
       style="font-size:16px" />
    <path
       d="m 86.488281,347.3399 1.933594,0 0,-6.67383 -2.103516,0.42187 0,-1.07812 2.091797,-0.42188 1.183594,0 0,7.75196 1.933594,0 0,0.99609 -5.039063,0 0,-0.99609"
       transform="translate(-1,-3)"
       id="flowRoot9352" />
  </g>
  <g
     transform="translate(60.712893,-126.82088)"
     id="g9360">
    <path
       d="m 15.28125,89.862049 c -0.708338,7e-6 -1.270837,0.242194 -1.6875,0.726563 -0.411462,0.48438 -0.61719,1.148442 -0.617188,1.992187 -2e-6,0.838545 0.205726,1.502606 0.617188,1.992188 0.416663,0.484376 0.979162,0.726563 1.6875,0.726562 0.708327,10e-7 1.268223,-0.242186 1.679688,-0.726562 0.416659,-0.489582 0.624992,-1.153643 0.625,-1.992188 -8e-6,-0.843745 -0.208341,-1.507807 -0.625,-1.992187 -0.411465,-0.484369 -0.971361,-0.726556 -1.679688,-0.726563 m 3.132812,-4.945312 0,1.4375 c -0.395841,-0.18749 -0.796882,-0.330719 -1.203124,-0.429688 -0.401049,-0.09895 -0.799486,-0.148427 -1.195313,-0.148437 -1.041672,1e-5 -1.838546,0.351572 -2.390625,1.054687 -0.546878,0.703134 -0.859378,1.765633 -0.9375,3.1875 0.307289,-0.453118 0.692705,-0.799472 1.15625,-1.039062 0.463537,-0.244785 0.973954,-0.36718 1.53125,-0.367188 1.171868,8e-6 2.096347,0.356778 2.773438,1.070313 0.682282,0.708339 1.023428,1.674484 1.023437,2.898437 -9e-6,1.197919 -0.354175,2.158856 -1.0625,2.882813 -0.708341,0.723958 -1.651048,1.085937 -2.828125,1.085937 -1.348962,0 -2.380211,-0.515625 -3.09375,-1.546875 -0.713543,-1.036456 -1.070314,-2.536454 -1.070312,-4.5 -2e-6,-1.843742 0.437498,-3.312491 1.3125,-4.40625 0.874996,-1.098947 2.049474,-1.648426 3.523437,-1.648437 0.395827,1.1e-5 0.794264,0.03907 1.195313,0.117187 0.406242,0.07814 0.828117,0.195324 1.265624,0.351563"
       transform="translate(64.82812,241.00404)"
       id="flowRoot9362"
       style="font-size:16px" />
    <path
       d="m 87.302734,347.3399 4.13086,0 0,0.99609 -5.554688,0 0,-0.99609 c 0.449218,-0.46485 1.060545,-1.08789 1.833985,-1.86914 0.77734,-0.78516 1.265621,-1.29102 1.464843,-1.51758 0.378902,-0.42578 0.642574,-0.78515 0.791016,-1.07813 0.152339,-0.29687 0.22851,-0.58788 0.228516,-0.87304 -6e-6,-0.46484 -0.164068,-0.84375 -0.492188,-1.13672 -0.324223,-0.29296 -0.748051,-0.43945 -1.271484,-0.43946 -0.371097,10e-6 -0.763675,0.0645 -1.177735,0.19336 -0.410158,0.12892 -0.84961,0.32423 -1.318359,0.58594 l 0,-1.19531 c 0.476561,-0.1914 0.921873,-0.33593 1.335938,-0.4336 0.414059,-0.0976 0.792965,-0.14647 1.136718,-0.14648 0.906246,1e-5 1.628901,0.22657 2.167969,0.67969 0.539056,0.45313 0.808587,1.0586 0.808594,1.8164 -7e-6,0.35938 -0.06837,0.70118 -0.205078,1.02539 -0.132819,0.32032 -0.376959,0.69923 -0.732422,1.13672 -0.09766,0.11329 -0.408208,0.44141 -0.931641,0.98438 -0.523441,0.53906 -1.261722,1.29492 -2.214844,2.26758"
       transform="translate(-1,-3)"
       id="flowRoot9370" />
  </g>
  <g
     transform="translate(154.71289,-126.82088)"
     id="g9378">
    <path
       d="m 15.28125,89.862049 c -0.708338,7e-6 -1.270837,0.242194 -1.6875,0.726563 -0.411462,0.48438 -0.61719,1.148442 -0.617188,1.992187 -2e-6,0.838545 0.205726,1.502606 0.617188,1.992188 0.416663,0.484376 0.979162,0.726563 1.6875,0.726562 0.708327,10e-7 1.268223,-0.242186 1.679688,-0.726562 0.416659,-0.489582 0.624992,-1.153643 0.625,-1.992188 -8e-6,-0.843745 -0.208341,-1.507807 -0.625,-1.992187 -0.411465,-0.484369 -0.971361,-0.726556 -1.679688,-0.726563 m 3.132812,-4.945312 0,1.4375 c -0.395841,-0.18749 -0.796882,-0.330719 -1.203124,-0.429688 -0.401049,-0.09895 -0.799486,-0.148427 -1.195313,-0.148437 -1.041672,1e-5 -1.838546,0.351572 -2.390625,1.054687 -0.546878,0.703134 -0.859378,1.765633 -0.9375,3.1875 0.307289,-0.453118 0.692705,-0.799472 1.15625,-1.039062 0.463537,-0.244785 0.973954,-0.36718 1.53125,-0.367188 1.171868,8e-6 2.096347,0.356778 2.773438,1.070313 0.682282,0.708339 1.023428,1.674484 1.023437,2.898437 -9e-6,1.197919 -0.354175,2.158856 -1.0625,2.882813 -0.708341,0.723958 -1.651048,1.085937 -2.828125,1.085937 -1.348962,0 -2.380211,-0.515625 -3.09375,-1.546875 -0.713543,-1.036456 -1.070314,-2.536454 -1.070312,-4.5 -2e-6,-1.843742 0.437498,-3.312491 1.3125,-4.40625 0.874996,-1.098947 2.049474,-1.648426 3.523437,-1.648437 0.395827,1.1e-5 0.794264,0.03907 1.195313,0.117187 0.406242,0.07814 0.828117,0.195324 1.265624,0.351563"
       transform="translate(64.82812,241.00404)"
       id="flowRoot9380"
       style="font-size:16px" />
    <path
       d="m 89.869141,343.61919 c 0.5664,0.1211 1.007806,0.37305 1.324218,0.75586 0.320306,0.38282 0.480462,0.85547 0.480469,1.41797 -7e-6,0.86328 -0.296881,1.53125 -0.890625,2.00391 -0.593755,0.47265 -1.437504,0.70898 -2.53125,0.70898 -0.36719,0 -0.746096,-0.0371 -1.136719,-0.11133 -0.38672,-0.0703 -0.78711,-0.17773 -1.201172,-0.32226 l 0,-1.14258 c 0.328124,0.19141 0.687499,0.33594 1.078126,0.43359 0.390622,0.0977 0.798825,0.14649 1.224609,0.14649 0.742183,0 1.306636,-0.14649 1.693359,-0.43946 0.39062,-0.29296 0.585932,-0.71874 0.585938,-1.27734 -6e-6,-0.51562 -0.181646,-0.91796 -0.544922,-1.20703 -0.35938,-0.29296 -0.861332,-0.43945 -1.50586,-0.43945 l -1.019531,0 0,-0.97266 1.066407,0 c 0.582027,10e-6 1.027339,-0.11523 1.335937,-0.3457 0.308589,-0.23437 0.462885,-0.57031 0.462891,-1.00782 -6e-6,-0.44921 -0.160162,-0.79296 -0.480469,-1.03125 -0.316411,-0.24217 -0.771489,-0.36327 -1.365235,-0.36328 -0.324221,10e-6 -0.671877,0.0352 -1.042968,0.10547 -0.371096,0.0703 -0.779299,0.1797 -1.22461,0.32813 l 0,-1.05469 c 0.449217,-0.12499 0.869139,-0.21874 1.259766,-0.28125 0.394528,-0.0625 0.765622,-0.0937 1.113281,-0.0937 0.898433,10e-6 1.60937,0.20509 2.132813,0.61523 0.523431,0.40626 0.78515,0.95704 0.785156,1.65235 -6e-6,0.48438 -0.138678,0.89454 -0.416016,1.23047 -0.277349,0.33203 -0.67188,0.5625 -1.183593,0.6914"
       transform="translate(-1,-3)"
       id="flowRoot9388" />
  </g>
  <g
     transform="translate(246.71289,-127.03182)"
     id="g9396">
    <path
       d="m 11.3125,84.658924 7.5,0 0,0.671875 -4.234375,10.992188 -1.648437,0 3.984374,-10.335938 -5.601562,0 0,-1.328125"
       transform="translate(64.82812,241.00404)"
       id="flowRoot9398"
       style="font-size:16px" />
    <path
       d="m 86.488281,347.3399 1.933594,0 0,-6.67383 -2.103516,0.42187 0,-1.07812 2.091797,-0.42188 1.183594,0 0,7.75196 1.933594,0 0,0.99609 -5.039063,0 0,-0.99609"
       transform="translate(-1,-3)"
       id="flowRoot9406" />
  </g>
  <g
     transform="translate(339.71289,-127.03182)"
     id="g9414">
    <path
       d="m 11.3125,84.658924 7.5,0 0,0.671875 -4.234375,10.992188 -1.648437,0 3.984374,-10.335938 -5.601562,0 0,-1.328125"
       transform="translate(64.82812,241.00404)"
       id="flowRoot9416"
       style="font-size:16px" />
    <path
       d="m 87.302734,347.3399 4.13086,0 0,0.99609 -5.554688,0 0,-0.99609 c 0.449218,-0.46485 1.060545,-1.08789 1.833985,-1.86914 0.77734,-0.78516 1.265621,-1.29102 1.464843,-1.51758 0.378902,-0.42578 0.642574,-0.78515 0.791016,-1.07813 0.152339,-0.29687 0.22851,-0.58788 0.228516,-0.87304 -6e-6,-0.46484 -0.164068,-0.84375 -0.492188,-1.13672 -0.324223,-0.29296 -0.748051,-0.43945 -1.271484,-0.43946 -0.371097,10e-6 -0.763675,0.0645 -1.177735,0.19336 -0.410158,0.12892 -0.84961,0.32423 -1.318359,0.58594 l 0,-1.19531 c 0.476561,-0.1914 0.921873,-0.33593 1.335938,-0.4336 0.414059,-0.0976 0.792965,-0.14647 1.136718,-0.14648 0.906246,1e-5 1.628901,0.22657 2.167969,0.67969 0.539056,0.45313 0.808587,1.0586 0.808594,1.8164 -7e-6,0.35938 -0.06837,0.70118 -0.205078,1.02539 -0.132819,0.32032 -0.376959,0.69923 -0.732422,1.13672 -0.09766,0.11329 -0.408208,0.44141 -0.931641,0.98438 -0.523441,0.53906 -1.261722,1.29492 -2.214844,2.26758"
       transform="translate(-1,-3)"
       id="flowRoot9424" />
  </g>
  <g
     transform="translate(-29.287107,-10.031822)"
     id="g9432">
    <path
       d="m 11.3125,84.658924 7.5,0 0,0.671875 -4.234375,10.992188 -1.648437,0 3.984374,-10.335938 -5.601562,0 0,-1.328125"
       transform="translate(64.82812,241.00404)"
       id="flowRoot9434"
       style="font-size:16px" />
    <path
       d="m 89.869141,343.61919 c 0.5664,0.1211 1.007806,0.37305 1.324218,0.75586 0.320306,0.38282 0.480462,0.85547 0.480469,1.41797 -7e-6,0.86328 -0.296881,1.53125 -0.890625,2.00391 -0.593755,0.47265 -1.437504,0.70898 -2.53125,0.70898 -0.36719,0 -0.746096,-0.0371 -1.136719,-0.11133 -0.38672,-0.0703 -0.78711,-0.17773 -1.201172,-0.32226 l 0,-1.14258 c 0.328124,0.19141 0.687499,0.33594 1.078126,0.43359 0.390622,0.0977 0.798825,0.14649 1.224609,0.14649 0.742183,0 1.306636,-0.14649 1.693359,-0.43946 0.39062,-0.29296 0.585932,-0.71874 0.585938,-1.27734 -6e-6,-0.51562 -0.181646,-0.91796 -0.544922,-1.20703 -0.35938,-0.29296 -0.861332,-0.43945 -1.50586,-0.43945 l -1.019531,0 0,-0.97266 1.066407,0 c 0.582027,10e-6 1.027339,-0.11523 1.335937,-0.3457 0.308589,-0.23437 0.462885,-0.57031 0.462891,-1.00782 -6e-6,-0.44921 -0.160162,-0.79296 -0.480469,-1.03125 -0.316411,-0.24217 -0.771489,-0.36327 -1.365235,-0.36328 -0.324221,10e-6 -0.671877,0.0352 -1.042968,0.10547 -0.371096,0.0703 -0.779299,0.1797 -1.22461,0.32813 l 0,-1.05469 c 0.449217,-0.12499 0.869139,-0.21874 1.259766,-0.28125 0.394528,-0.0625 0.765622,-0.0937 1.113281,-0.0937 0.898433,10e-6 1.60937,0.20509 2.132813,0.61523 0.523431,0.40626 0.78515,0.95704 0.785156,1.65235 -6e-6,0.48438 -0.138678,0.89454 -0.416016,1.23047 -0.277349,0.33203 -0.67188,0.5625 -1.183593,0.6914"
       transform="translate(-1,-3)"
       id="flowRoot9442" />
  </g>
  <g
     transform="translate(61.712892,-10.031822)"
     id="g9450">
    <path
       d="m 11.3125,84.658924 7.5,0 0,0.671875 -4.234375,10.992188 -1.648437,0 3.984374,-10.335938 -5.601562,0 0,-1.328125"
       transform="translate(64.82812,241.00404)"
       id="flowRoot9452"
       style="font-size:16px" />
    <path
       d="m 89.535156,340.61919 -2.988281,4.66992 2.988281,0 0,-4.66992 m -0.310547,-1.03125 1.488282,0 0,5.70117 1.248047,0 0,0.98438 -1.248047,0 0,2.0625 -1.177735,0 0,-2.0625 -3.949218,0 0,-1.14258 3.638671,-5.54297"
       transform="translate(-1,-3)"
       id="flowRoot9460" />
  </g>
  <g
     transform="translate(153.71289,-10.031822)"
     id="g9468">
    <path
       d="m 11.3125,84.658924 7.5,0 0,0.671875 -4.234375,10.992188 -1.648437,0 3.984374,-10.335938 -5.601562,0 0,-1.328125"
       transform="translate(64.82812,241.00404)"
       id="flowRoot9470"
       style="font-size:16px" />
    <path
       d="m 86.294922,339.58794 4.646484,0 0,0.9961 -3.5625,0 0,2.14453 c 0.171873,-0.0586 0.343748,-0.10156 0.515625,-0.12891 0.171872,-0.0312 0.343747,-0.0469 0.515625,-0.0469 0.976558,0 1.749995,0.26758 2.320313,0.80273 0.570306,0.53516 0.855462,1.25977 0.855469,2.17383 -7e-6,0.94141 -0.292976,1.67383 -0.878907,2.19726 -0.585942,0.51954 -1.412113,0.7793 -2.478515,0.7793 -0.367191,0 -0.74219,-0.0312 -1.125,-0.0937 -0.378908,-0.0625 -0.771486,-0.15625 -1.177735,-0.28125 l 0,-1.18945 c 0.351561,0.19141 0.714842,0.33398 1.089844,0.42773 0.374998,0.0937 0.771482,0.14063 1.189453,0.14063 0.675777,0 1.210933,-0.17774 1.605469,-0.53321 0.394526,-0.35546 0.591791,-0.83788 0.591797,-1.44726 -6e-6,-0.60937 -0.197271,-1.09179 -0.591797,-1.44727 -0.394536,-0.35546 -0.929692,-0.53319 -1.605469,-0.5332 -0.316409,10e-6 -0.632815,0.0352 -0.949219,0.10547 -0.312502,0.0703 -0.632814,0.17969 -0.960937,0.32812 l 0,-4.39453"
       transform="translate(-1,-3)"
       id="flowRoot9478" />
  </g>
  <g
     transform="translate(243.71289,-10.031822)"
     id="g9486">
    <path
       d="m 11.3125,84.658924 7.5,0 0,0.671875 -4.234375,10.992188 -1.648437,0 3.984374,-10.335938 -5.601562,0 0,-1.328125"
       transform="translate(64.82812,241.00404)"
       id="flowRoot9488"
       style="font-size:16px" />
    <path
       d="m 88.960938,343.49029 c -0.531254,0 -0.953129,0.18164 -1.265626,0.54492 -0.308596,0.36328 -0.462892,0.86133 -0.46289,1.49414 -2e-6,0.62891 0.154294,1.12695 0.46289,1.49414 0.312497,0.36328 0.734372,0.54492 1.265626,0.54492 0.531245,0 0.951166,-0.18164 1.259765,-0.54492 0.312495,-0.36719 0.468744,-0.86523 0.46875,-1.49414 -6e-6,-0.63281 -0.156255,-1.13086 -0.46875,-1.49414 -0.308599,-0.36328 -0.72852,-0.54492 -1.259765,-0.54492 m 2.349609,-3.70899 0,1.07813 c -0.296881,-0.14062 -0.597662,-0.24804 -0.902344,-0.32227 -0.300786,-0.0742 -0.599614,-0.11132 -0.896484,-0.11133 -0.781254,10e-6 -1.37891,0.26368 -1.792969,0.79102 -0.410159,0.52735 -0.644533,1.32422 -0.703125,2.39062 0.230467,-0.33983 0.519529,-0.5996 0.867187,-0.77929 0.347654,-0.18359 0.730466,-0.27539 1.148438,-0.27539 0.878901,0 1.57226,0.26758 2.080078,0.80273 0.511712,0.53126 0.767571,1.25586 0.767578,2.17383 -7e-6,0.89844 -0.265631,1.61914 -0.796875,2.16211 -0.531255,0.54297 -1.238286,0.81445 -2.121093,0.81445 -1.011722,0 -1.785159,-0.38672 -2.320313,-1.16015 -0.535157,-0.77735 -0.802735,-1.90235 -0.802734,-3.375 -10e-7,-1.38281 0.328123,-2.48437 0.984375,-3.30469 0.656247,-0.82421 1.537106,-1.23632 2.642578,-1.23633 0.29687,1e-5 0.595698,0.0293 0.896484,0.0879 0.304682,0.0586 0.621088,0.14649 0.949219,0.26367"
       transform="translate(-1,-3)"
       id="flowRoot9496" />
  </g>
  <g
     transform="translate(336.71289,-10.031822)"
     id="g9504">
    <path
       d="m 11.3125,84.658924 7.5,0 0,0.671875 -4.234375,10.992188 -1.648437,0 3.984374,-10.335938 -5.601562,0 0,-1.328125"
       transform="translate(64.82812,241.00404)"
       id="flowRoot9506"
       style="font-size:16px" />
    <path
       d="m 85.984375,339.58794 5.625,0 0,0.50391 -3.175781,8.24414 -1.236328,0 2.988281,-7.75195 -4.201172,0 0,-0.9961"
       transform="translate(-1,-3)"
       id="flowRoot9514" />
  </g>
</svg>
